{
  "source": "C:\\Users\\Peter\\Desktop\\stuff\\MIUN\\quantitative_research\\video_compression\\videos\\UVG\\ShakeNDry_1920x1080_120fps_420_8bit_YUV.y4m",
  "output": "C:\\Users\\Peter\\Desktop\\stuff\\MIUN\\quantitative_research\\video_compression\\compressed_videos\\UVG\\hevc\\4\\ShakeNDry_1920x1080_120fps_420_8bit_YUV_hevc.mp4",
  "codec": "hevc",
  "ok": "[yuv4mpegpipe @ 000001b64cc66740] Stream #0: not enough frames to estimate rate; consider increasing probesize\nInput #0, yuv4mpegpipe, from 'C:\\Users\\Peter\\Desktop\\stuff\\MIUN\\quantitative_research\\video_compression\\videos\\UVG\\ShakeNDry_1920x1080_120fps_420_8bit_YUV.y4m':\n  Duration: 00:00:02.50, start: 0.000000, bitrate: 2985989 kb/s\n  Stream #0:0: Video: rawvideo (I420 / 0x30323449), yuv420p(progressive), 1920x1080, 120 fps, 120 tbr, 120 tbn\n[out#0/mp4 @ 000001b64cc69a80] Codec AVOption b:a (set bitrate (in bits/s)) has not been used for any stream. The most likely reason is either wrong type (e.g. a video option with no video streams) or that it is a private option of some decoder which was not actually used for any stream.\nStream mapping:\n  Stream #0:0 -> #0:0 (rawvideo (native) -> hevc (libx265))\nPress [q] to stop, [?] for help\n[libx265 @ 000001b64cc6cac0] Unknown option: \"aq-mode.\nx265 [info]: HEVC encoder version 4.1+190-8f11c33ac\nx265 [info]: build info [Windows][GCC 15.1.0][64 bit] 10bit\nx265 [info]: using cpu capabilities: MMX2 SSE2Fast LZCNT SSSE3 SSE4.2 AVX FMA3 BMI2 AVX2\nx265 [info]: Main 10 profile, Level-5 (Main tier)\nx265 [info]: Thread pool created using 12 threads\nx265 [info]: Slices                              : 1\nx265 [info]: frame threads / pool features       : 3 / wpp(17 rows)\nx265 [info]: Coding QT: max CU size, min CU size : 64 / 8\nx265 [info]: Residual QT: max TU size, max depth : 32 / 1 inter / 1 intra\nx265 [info]: ME / range / subpel / merge         : star / 57 / 3 / 3\nx265 [info]: Keyframe min / max / scenecut / bias  : 25 / 250 / 40 / 5.00 \nx265 [info]: Lookahead / bframes / badapt        : 25 / 4 / 2\nx265 [info]: b-pyramid / weightp / weightb       : 1 / 1 / 0\nx265 [info]: References / ref-limit  cu / depth  : 4 / on / on\nx265 [info]: AQ: mode / str / qg-size / cu-tree  : 2 / 1.0 / 32 / 1\nx265 [info]: Rate Control / qCompress            : ABR-4000 kbps / 0.60\nx265 [info]: VBV/HRD buffer / max-rate / init    : 4000 / 4000 / 0.750\nx265 [info]: tools: rect limit-modes rd=4 psy-rd=2.00 rdoq=2 psy-rdoq=1.00\nx265 [info]: tools: rskip mode=1 signhide tmvp strong-intra-smoothing lslices=4\nx265 [info]: tools: deblock sao dhdr10-info\nOutput #0, mp4, to 'C:\\Users\\Peter\\Desktop\\stuff\\MIUN\\quantitative_research\\video_compression\\compressed_videos\\UVG\\hevc\\4\\ShakeNDry_1920x1080_120fps_420_8bit_YUV_hevc.mp4':\n  Metadata:\n    encoder         : Lavf62.3.100\n  Stream #0:0: Video: hevc (hev1 / 0x31766568), yuv420p10le(tv, progressive), 1920x1080, q=2-31, 4000 kb/s, 120 fps, 15360 tbn\n    Metadata:\n      encoder         : Lavc62.11.100 libx265\n    Side data:\n      cpb: bitrate max/min/avg: 4000000/0/4000000 buffer size: 4000000 vbv_delay: N/A\nframe=    0 fps=0.0 q=0.0 size=       0KiB time=N/A bitrate=N/A speed=N/A elapsed=0:00:00.50    \nframe=    0 fps=0.0 q=0.0 size=       0KiB time=N/A bitrate=N/A speed=N/A elapsed=0:00:01.02    \nframe=    0 fps=0.0 q=0.0 size=       0KiB time=N/A bitrate=N/A speed=N/A elapsed=0:00:01.53    \nframe=    0 fps=0.0 q=0.0 size=       0KiB time=N/A bitrate=N/A speed=N/A elapsed=0:00:02.05    \nframe=    0 fps=0.0 q=0.0 size=       0KiB time=N/A bitrate=N/A speed=N/A elapsed=0:00:02.57    \nframe=    3 fps=1.0 q=51.0 size=       0KiB time=00:00:00.00 bitrate=  42.2kbits/s speed=0.0027x elapsed=0:00:03.08    \nframe=    4 fps=1.1 q=51.0 size=       0KiB time=00:00:00.01 bitrate=  21.1kbits/s speed=0.00463x elapsed=0:00:03.60    \nframe=    6 fps=1.5 q=51.0 size=       0KiB time=00:00:00.03 bitrate=  10.6kbits/s speed=0.00809x elapsed=0:00:04.11    \nframe=    8 fps=1.7 q=46.4 size=       0KiB time=00:00:00.05 bitrate=   7.0kbits/s speed=0.0108x elapsed=0:00:04.64    \nframe=    9 fps=1.7 q=45.4 size=       0KiB time=00:00:00.05 bitrate=   6.0kbits/s speed=0.0113x elapsed=0:00:05.15    \nframe=    9 fps=1.6 q=45.4 size=       0KiB time=00:00:00.05 bitrate=   6.0kbits/s speed=0.0103x elapsed=0:00:05.66    \nframe=   11 fps=1.8 q=45.2 size=       0KiB time=00:00:00.07 bitrate=   4.7kbits/s speed=0.0121x elapsed=0:00:06.18    \nframe=   12 fps=1.8 q=38.6 size=       0KiB time=00:00:00.08 bitrate=   4.2kbits/s speed=0.0124x elapsed=0:00:06.69    \nframe=   13 fps=1.8 q=46.3 size=       0KiB time=00:00:00.09 bitrate=   3.8kbits/s speed=0.0127x elapsed=0:00:07.20    \nframe=   15 fps=1.9 q=47.3 size=       0KiB time=00:00:00.10 bitrate=   3.2kbits/s speed=0.014x elapsed=0:00:07.72    \nframe=   16 fps=1.9 q=46.5 size=       0KiB time=00:00:00.11 bitrate=   3.0kbits/s speed=0.0141x elapsed=0:00:08.25    \nframe=   17 fps=1.9 q=42.2 size=       0KiB time=00:00:00.12 bitrate=   2.8kbits/s speed=0.0143x elapsed=0:00:08.76    \nframe=   19 fps=2.0 q=45.4 size=       0KiB time=00:00:00.14 bitrate=   2.5kbits/s speed=0.0153x elapsed=0:00:09.27    \nframe=   20 fps=2.0 q=45.1 size=       0KiB time=00:00:00.15 bitrate=   2.3kbits/s speed=0.0153x elapsed=0:00:09.79    \nframe=   21 fps=2.0 q=45.2 size=       0KiB time=00:00:00.15 bitrate=   2.2kbits/s speed=0.0153x elapsed=0:00:10.31    \nframe=   22 fps=2.0 q=39.4 size=       0KiB time=00:00:00.16 bitrate=   2.1kbits/s speed=0.0154x elapsed=0:00:10.83    \nframe=   24 fps=2.1 q=44.5 size=       0KiB time=00:00:00.18 bitrate=   1.9kbits/s speed=0.0161x elapsed=0:00:11.35    \nframe=   25 fps=2.1 q=44.4 size=       0KiB time=00:00:00.19 bitrate=   1.8kbits/s speed=0.0162x elapsed=0:00:11.86    \nframe=   26 fps=2.1 q=44.4 size=       0KiB time=00:00:00.20 bitrate=   1.8kbits/s speed=0.0161x elapsed=0:00:12.39    \nframe=   27 fps=2.1 q=39.9 size=       0KiB time=00:00:00.20 bitrate=   1.7kbits/s speed=0.0162x elapsed=0:00:12.89    \nframe=   28 fps=2.1 q=43.2 size=       0KiB time=00:00:00.21 bitrate=   1.6kbits/s speed=0.0162x elapsed=0:00:13.41    \nframe=   29 fps=2.1 q=44.5 size=       0KiB time=00:00:00.22 bitrate=   1.6kbits/s speed=0.0161x elapsed=0:00:13.93    \nframe=   30 fps=2.1 q=44.3 size=       0KiB time=00:00:00.23 bitrate=   1.5kbits/s speed=0.0161x elapsed=0:00:14.44    \nframe=   31 fps=2.1 q=44.3 size=       0KiB time=00:00:00.24 bitrate=   1.5kbits/s speed=0.0162x elapsed=0:00:14.95    \nframe=   32 fps=2.1 q=39.5 size=       0KiB time=00:00:00.25 bitrate=   1.4kbits/s speed=0.0162x elapsed=0:00:15.47    \nframe=   34 fps=2.1 q=44.3 size=       0KiB time=00:00:00.26 bitrate=   1.3kbits/s speed=0.0167x elapsed=0:00:16.00    \nframe=   34 fps=2.1 q=44.3 size=       0KiB time=00:00:00.26 bitrate=   1.3kbits/s speed=0.0162x elapsed=0:00:16.50    \nframe=   36 fps=2.1 q=44.2 size=       0KiB time=00:00:00.28 bitrate=   1.2kbits/s speed=0.0166x elapsed=0:00:17.01    \nframe=   37 fps=2.1 q=39.7 size=       0KiB time=00:00:00.29 bitrate=   1.2kbits/s speed=0.0166x elapsed=0:00:17.53    \nframe=   38 fps=2.1 q=43.1 size=       0KiB time=00:00:00.30 bitrate=   1.2kbits/s speed=0.0166x elapsed=0:00:18.05    \nframe=   39 fps=2.1 q=44.2 size=       0KiB time=00:00:00.30 bitrate=   1.1kbits/s speed=0.0166x elapsed=0:00:18.57    \nframe=   40 fps=2.1 q=44.1 size=       0KiB time=00:00:00.31 bitrate=   1.1kbits/s speed=0.0166x elapsed=0:00:19.08    \nframe=   41 fps=2.1 q=44.3 size=       0KiB time=00:00:00.32 bitrate=   1.1kbits/s speed=0.0166x elapsed=0:00:19.60    \nframe=   42 fps=2.1 q=39.3 size=       0KiB time=00:00:00.33 bitrate=   1.1kbits/s speed=0.0166x elapsed=0:00:20.11    \nframe=   44 fps=2.1 q=44.1 size=       0KiB time=00:00:00.35 bitrate=   1.0kbits/s speed=0.017x elapsed=0:00:20.63    \nframe=   45 fps=2.1 q=44.1 size=       0KiB time=00:00:00.35 bitrate=   1.0kbits/s speed=0.0169x elapsed=0:00:21.14    \nframe=   46 fps=2.1 q=44.1 size=       0KiB time=00:00:00.36 bitrate=   1.0kbits/s speed=0.0169x elapsed=0:00:21.67    \nframe=   47 fps=2.1 q=39.3 size=       0KiB time=00:00:00.37 bitrate=   0.9kbits/s speed=0.0169x elapsed=0:00:22.17    \nframe=   48 fps=2.1 q=42.9 size=       0KiB time=00:00:00.38 bitrate=   0.9kbits/s speed=0.0169x elapsed=0:00:22.70    \nframe=   49 fps=2.1 q=44.2 size=       0KiB time=00:00:00.39 bitrate=   0.9kbits/s speed=0.0169x elapsed=0:00:23.21    \nframe=   50 fps=2.1 q=44.2 size=       0KiB time=00:00:00.40 bitrate=   0.9kbits/s speed=0.0169x elapsed=0:00:23.73    \nframe=   51 fps=2.1 q=44.2 size=       0KiB time=00:00:00.40 bitrate=   0.9kbits/s speed=0.0168x elapsed=0:00:24.24    \nframe=   52 fps=2.1 q=39.1 size=       0KiB time=00:00:00.41 bitrate=   0.8kbits/s speed=0.0168x elapsed=0:00:24.76    \nframe=   53 fps=2.1 q=42.9 size=       0KiB time=00:00:00.42 bitrate=   0.8kbits/s speed=0.0168x elapsed=0:00:25.27    \nframe=   54 fps=2.1 q=44.0 size=       0KiB time=00:00:00.43 bitrate=   0.8kbits/s speed=0.0168x elapsed=0:00:25.79    \nframe=   55 fps=2.1 q=44.0 size=       0KiB time=00:00:00.44 bitrate=   0.8kbits/s speed=0.0168x elapsed=0:00:26.30    \nframe=   56 fps=2.1 q=44.1 size=       0KiB time=00:00:00.45 bitrate=   0.8kbits/s speed=0.0168x elapsed=0:00:26.81    \nframe=   57 fps=2.1 q=39.1 size=       0KiB time=00:00:00.45 bitrate=   0.8kbits/s speed=0.0168x elapsed=0:00:27.34    \nframe=   58 fps=2.1 q=42.9 size=       0KiB time=00:00:00.46 bitrate=   0.8kbits/s speed=0.0168x elapsed=0:00:27.85    \nframe=   59 fps=2.1 q=44.0 size=       0KiB time=00:00:00.47 bitrate=   0.7kbits/s speed=0.0167x elapsed=0:00:28.37    \nframe=   60 fps=2.1 q=43.9 size=       0KiB time=00:00:00.48 bitrate=   0.7kbits/s speed=0.0167x elapsed=0:00:28.88    \nframe=   61 fps=2.1 q=43.5 size=       0KiB time=00:00:00.49 bitrate=   0.7kbits/s speed=0.0167x elapsed=0:00:29.40    \nframe=   62 fps=2.1 q=38.0 size=       0KiB time=00:00:00.50 bitrate=   0.7kbits/s speed=0.0167x elapsed=0:00:29.92    \nframe=   63 fps=2.1 q=42.3 size=       0KiB time=00:00:00.50 bitrate=   0.7kbits/s speed=0.0167x elapsed=0:00:30.44    \nframe=   64 fps=2.1 q=44.1 size=       0KiB time=00:00:00.51 bitrate=   0.7kbits/s speed=0.0167x elapsed=0:00:30.96    \nframe=   65 fps=2.1 q=44.1 size=       0KiB time=00:00:00.52 bitrate=   0.7kbits/s speed=0.0167x elapsed=0:00:31.47    \nframe=   66 fps=2.1 q=44.0 size=       0KiB time=00:00:00.53 bitrate=   0.7kbits/s speed=0.0167x elapsed=0:00:31.98    \nframe=   67 fps=2.1 q=38.7 size=       0KiB time=00:00:00.54 bitrate=   0.6kbits/s speed=0.0167x elapsed=0:00:32.51    \nframe=   68 fps=2.1 q=42.3 size=       0KiB time=00:00:00.55 bitrate=   0.6kbits/s speed=0.0167x elapsed=0:00:33.02    \nframe=   69 fps=2.1 q=44.0 size=     256KiB time=00:00:00.55 bitrate=3756.7kbits/s speed=0.0166x elapsed=0:00:33.54    \nframe=   70 fps=2.1 q=43.3 size=     256KiB time=00:00:00.56 bitrate=3701.5kbits/s speed=0.0166x elapsed=0:00:34.05    \nframe=   71 fps=2.1 q=43.4 size=     256KiB time=00:00:00.57 bitrate=3647.8kbits/s speed=0.0166x elapsed=0:00:34.58    \nframe=   71 fps=2.0 q=43.4 size=     256KiB time=00:00:00.57 bitrate=3647.8kbits/s speed=0.0164x elapsed=0:00:35.10    \nframe=   72 fps=2.0 q=39.0 size=     256KiB time=00:00:00.58 bitrate=3595.7kbits/s speed=0.0164x elapsed=0:00:35.61    \nframe=   73 fps=2.0 q=42.2 size=     256KiB time=00:00:00.59 bitrate=3545.1kbits/s speed=0.0164x elapsed=0:00:36.12    \nframe=   74 fps=2.0 q=43.4 size=     256KiB time=00:00:00.60 bitrate=3495.8kbits/s speed=0.0164x elapsed=0:00:36.64    \nframe=   74 fps=2.0 q=43.4 size=     256KiB time=00:00:00.60 bitrate=3495.8kbits/s speed=0.0161x elapsed=0:00:37.17    \nframe=   74 fps=2.0 q=43.4 size=     256KiB time=00:00:00.60 bitrate=3495.8kbits/s speed=0.0159x elapsed=0:00:37.68    \nframe=   75 fps=2.0 q=43.3 size=     256KiB time=00:00:00.60 bitrate=3448.0kbits/s speed=0.0159x elapsed=0:00:38.20    \nframe=   76 fps=2.0 q=43.4 size=     256KiB time=00:00:00.61 bitrate=3401.4kbits/s speed=0.0159x elapsed=0:00:38.72    \nframe=   77 fps=2.0 q=38.5 size=     256KiB time=00:00:00.62 bitrate=3356.0kbits/s speed=0.0159x elapsed=0:00:39.24    \nframe=   77 fps=1.9 q=38.5 size=     256KiB time=00:00:00.62 bitrate=3356.0kbits/s speed=0.0157x elapsed=0:00:39.75    \nframe=   78 fps=1.9 q=42.0 size=     256KiB time=00:00:00.63 bitrate=3311.9kbits/s speed=0.0157x elapsed=0:00:40.27    \nframe=   79 fps=1.9 q=43.2 size=     256KiB time=00:00:00.64 bitrate=3268.8kbits/s speed=0.0157x elapsed=0:00:40.78    \nframe=   79 fps=1.9 q=43.2 size=     256KiB time=00:00:00.64 bitrate=3268.8kbits/s speed=0.0155x elapsed=0:00:41.30    \nframe=   80 fps=1.9 q=43.1 size=     256KiB time=00:00:00.65 bitrate=3226.9kbits/s speed=0.0155x elapsed=0:00:41.83    \nframe=   80 fps=1.9 q=43.1 size=     256KiB time=00:00:00.65 bitrate=3226.9kbits/s speed=0.0153x elapsed=0:00:42.35    \nframe=   81 fps=1.9 q=43.1 size=     256KiB time=00:00:00.65 bitrate=3186.1kbits/s speed=0.0154x elapsed=0:00:42.86    \nframe=   81 fps=1.9 q=43.1 size=     256KiB time=00:00:00.65 bitrate=3186.1kbits/s speed=0.0152x elapsed=0:00:43.38    \nframe=   82 fps=1.9 q=38.1 size=     256KiB time=00:00:00.66 bitrate=3146.3kbits/s speed=0.0152x elapsed=0:00:43.90    \nframe=   83 fps=1.9 q=41.9 size=     256KiB time=00:00:00.67 bitrate=3107.4kbits/s speed=0.0152x elapsed=0:00:44.43    \nframe=   84 fps=1.9 q=43.1 size=     256KiB time=00:00:00.68 bitrate=3069.5kbits/s speed=0.0152x elapsed=0:00:44.94    \nframe=   84 fps=1.8 q=43.1 size=     256KiB time=00:00:00.68 bitrate=3069.5kbits/s speed=0.015x elapsed=0:00:45.46    \nframe=   85 fps=1.8 q=43.1 size=     256KiB time=00:00:00.69 bitrate=3032.5kbits/s speed=0.015x elapsed=0:00:45.98    \nframe=   85 fps=1.8 q=43.1 size=     256KiB time=00:00:00.69 bitrate=3032.5kbits/s speed=0.0149x elapsed=0:00:46.51    \nframe=   86 fps=1.8 q=43.2 size=     256KiB time=00:00:00.70 bitrate=2996.4kbits/s speed=0.0149x elapsed=0:00:47.02    \nframe=   87 fps=1.8 q=38.5 size=     256KiB time=00:00:00.70 bitrate=2961.2kbits/s speed=0.0149x elapsed=0:00:47.55    \nframe=   87 fps=1.8 q=38.5 size=     256KiB time=00:00:00.70 bitrate=2961.2kbits/s speed=0.0147x elapsed=0:00:48.07    \nframe=   88 fps=1.8 q=42.0 size=     256KiB time=00:00:00.71 bitrate=2926.7kbits/s speed=0.0148x elapsed=0:00:48.58    \nframe=   89 fps=1.8 q=43.2 size=     256KiB time=00:00:00.72 bitrate=2893.1kbits/s speed=0.0148x elapsed=0:00:49.09    \nframe=   89 fps=1.8 q=43.2 size=     256KiB time=00:00:00.72 bitrate=2893.1kbits/s speed=0.0146x elapsed=0:00:49.62    \nframe=   90 fps=1.8 q=43.0 size=     256KiB time=00:00:00.73 bitrate=2860.2kbits/s speed=0.0146x elapsed=0:00:50.13    \nframe=   90 fps=1.8 q=43.0 size=     256KiB time=00:00:00.73 bitrate=2860.2kbits/s speed=0.0145x elapsed=0:00:50.65    \nframe=   91 fps=1.8 q=43.1 size=     256KiB time=00:00:00.74 bitrate=2828.1kbits/s speed=0.0145x elapsed=0:00:51.16    \nframe=   91 fps=1.8 q=43.1 size=     256KiB time=00:00:00.74 bitrate=2828.1kbits/s speed=0.0143x elapsed=0:00:51.69    \nframe=   92 fps=1.8 q=37.4 size=     256KiB time=00:00:00.75 bitrate=2796.7kbits/s speed=0.0144x elapsed=0:00:52.21    \nframe=   93 fps=1.8 q=41.3 size=     256KiB time=00:00:00.75 bitrate=2765.9kbits/s speed=0.0144x elapsed=0:00:52.73    \nframe=   93 fps=1.7 q=41.3 size=     256KiB time=00:00:00.75 bitrate=2765.9kbits/s speed=0.0142x elapsed=0:00:53.24    \nframe=   94 fps=1.7 q=43.1 size=     256KiB time=00:00:00.76 bitrate=2735.9kbits/s speed=0.0143x elapsed=0:00:53.76    \nframe=   94 fps=1.7 q=43.1 size=     256KiB time=00:00:00.76 bitrate=2735.9kbits/s speed=0.0141x elapsed=0:00:54.28    \nframe=   95 fps=1.7 q=43.0 size=     256KiB time=00:00:00.77 bitrate=2706.5kbits/s speed=0.0141x elapsed=0:00:54.80    \nframe=   96 fps=1.7 q=43.1 size=     256KiB time=00:00:00.78 bitrate=2677.7kbits/s speed=0.0142x elapsed=0:00:55.32    \nframe=   97 fps=1.7 q=37.1 size=     256KiB time=00:00:00.79 bitrate=2649.5kbits/s speed=0.0142x elapsed=0:00:55.86    \nframe=   98 fps=1.7 q=41.2 size=     256KiB time=00:00:00.79 bitrate=2649.5kbits/s speed=0.014x elapsed=0:00:56.38    \nframe=   98 fps=1.7 q=41.2 size=     256KiB time=00:00:00.80 bitrate=2621.9kbits/s speed=0.0141x elapsed=0:00:56.89    \nframe=   99 fps=1.7 q=42.3 size=     256KiB time=00:00:00.80 bitrate=2594.9kbits/s speed=0.0141x elapsed=0:00:57.42    \nframe=  100 fps=1.7 q=42.3 size=     256KiB time=00:00:00.81 bitrate=2568.4kbits/s speed=0.0141x elapsed=0:00:57.93    \nframe=  101 fps=1.7 q=42.3 size=     256KiB time=00:00:00.82 bitrate=2542.4kbits/s speed=0.0141x elapsed=0:00:58.45    \nframe=  102 fps=1.7 q=37.2 size=     256KiB time=00:00:00.83 bitrate=2517.0kbits/s speed=0.0141x elapsed=0:00:58.98    \nframe=  103 fps=1.7 q=41.1 size=     256KiB time=00:00:00.84 bitrate=2492.1kbits/s speed=0.0141x elapsed=0:00:59.51    \nframe=  103 fps=1.7 q=41.1 size=     256KiB time=00:00:00.84 bitrate=2492.1kbits/s speed=0.014x elapsed=0:01:00.04    \nframe=  104 fps=1.7 q=42.4 size=     256KiB time=00:00:00.85 bitrate=2467.7kbits/s speed=0.014x elapsed=0:01:00.55    \nframe=  105 fps=1.7 q=42.3 size=     256KiB time=00:00:00.85 bitrate=2443.7kbits/s speed=0.0141x elapsed=0:01:01.07    \nframe=  105 fps=1.7 q=42.3 size=     256KiB time=00:00:00.85 bitrate=2443.7kbits/s speed=0.0139x elapsed=0:01:01.59    \nframe=  106 fps=1.7 q=42.2 size=     256KiB time=00:00:00.86 bitrate=2420.2kbits/s speed=0.0139x elapsed=0:01:02.12    \nframe=  106 fps=1.7 q=42.2 size=     256KiB time=00:00:00.86 bitrate=2420.2kbits/s speed=0.0138x elapsed=0:01:02.64    \nframe=  106 fps=1.7 q=42.2 size=     256KiB time=00:00:00.86 bitrate=2420.2kbits/s speed=0.0137x elapsed=0:01:03.16    \nframe=  106 fps=1.7 q=42.2 size=     256KiB time=00:00:00.86 bitrate=2420.2kbits/s speed=0.0136x elapsed=0:01:03.68    \nframe=  106 fps=1.7 q=42.2 size=     256KiB time=00:00:00.86 bitrate=2420.2kbits/s speed=0.0135x elapsed=0:01:04.21    \nframe=  106 fps=1.6 q=42.2 size=     256KiB time=00:00:00.86 bitrate=2420.2kbits/s speed=0.0134x elapsed=0:01:04.73    \nframe=  107 fps=1.6 q=36.4 size=     256KiB time=00:00:00.87 bitrate=2397.1kbits/s speed=0.0134x elapsed=0:01:05.24    \nframe=  108 fps=1.6 q=41.0 size=     256KiB time=00:00:00.88 bitrate=2374.5kbits/s speed=0.0134x elapsed=0:01:05.75    \nframe=  109 fps=1.6 q=42.2 size=     256KiB time=00:00:00.89 bitrate=2352.3kbits/s speed=0.0135x elapsed=0:01:06.27    \nframe=  109 fps=1.6 q=42.2 size=     256KiB time=00:00:00.89 bitrate=2352.3kbits/s speed=0.0133x elapsed=0:01:06.79    \nframe=  110 fps=1.6 q=42.2 size=     256KiB time=00:00:00.90 bitrate=2330.6kbits/s speed=0.0134x elapsed=0:01:07.30    \nframe=  111 fps=1.6 q=42.3 size=     256KiB time=00:00:00.90 bitrate=2309.2kbits/s speed=0.0134x elapsed=0:01:07.82    \nframe=  112 fps=1.6 q=37.4 size=     256KiB time=00:00:00.91 bitrate=2288.2kbits/s speed=0.0134x elapsed=0:01:08.33    \nframe=  114 fps=1.7 q=42.1 size=     256KiB time=00:00:00.93 bitrate=2247.3kbits/s speed=0.0136x elapsed=0:01:08.84    \nframe=  115 fps=1.7 q=42.1 size=     256KiB time=00:00:00.94 bitrate=2227.4kbits/s speed=0.0136x elapsed=0:01:09.36    \nframe=  116 fps=1.7 q=42.1 size=     256KiB time=00:00:00.95 bitrate=2207.9kbits/s speed=0.0136x elapsed=0:01:09.89    \nframe=  117 fps=1.7 q=35.9 size=     256KiB time=00:00:00.95 bitrate=2188.7kbits/s speed=0.0136x elapsed=0:01:10.39    \nframe=  118 fps=1.7 q=40.7 size=     256KiB time=00:00:00.96 bitrate=2169.8kbits/s speed=0.0136x elapsed=0:01:10.92    \nframe=  119 fps=1.7 q=42.1 size=     256KiB time=00:00:00.97 bitrate=2151.3kbits/s speed=0.0136x elapsed=0:01:11.43    \nframe=  120 fps=1.7 q=42.1 size=     256KiB time=00:00:00.98 bitrate=2133.1kbits/s speed=0.0137x elapsed=0:01:11.94    \nframe=  122 fps=1.7 q=36.1 size=     256KiB time=00:00:01.00 bitrate=2097.5kbits/s speed=0.0138x elapsed=0:01:12.46    \nframe=  123 fps=1.7 q=40.3 size=     256KiB time=00:00:01.00 bitrate=2080.2kbits/s speed=0.0138x elapsed=0:01:12.98    \nframe=  124 fps=1.7 q=41.9 size=     256KiB time=00:00:01.01 bitrate=2063.1kbits/s speed=0.0138x elapsed=0:01:13.48    \nframe=  125 fps=1.7 q=41.3 size=     256KiB time=00:00:01.02 bitrate=2046.3kbits/s speed=0.0139x elapsed=0:01:14.00    \nframe=  126 fps=1.7 q=41.4 size=     256KiB time=00:00:01.03 bitrate=2029.8kbits/s speed=0.0139x elapsed=0:01:14.52    \nframe=  127 fps=1.7 q=35.9 size=     256KiB time=00:00:01.04 bitrate=2013.6kbits/s speed=0.0139x elapsed=0:01:15.04    \nframe=  128 fps=1.7 q=40.2 size=     256KiB time=00:00:01.05 bitrate=1997.6kbits/s speed=0.0139x elapsed=0:01:15.55    \nframe=  130 fps=1.7 q=41.4 size=     256KiB time=00:00:01.06 bitrate=1966.4kbits/s speed=0.014x elapsed=0:01:16.07    \nframe=  131 fps=1.7 q=41.4 size=     256KiB time=00:00:01.07 bitrate=1951.2kbits/s speed=0.014x elapsed=0:01:16.59    \nframe=  132 fps=1.7 q=35.4 size=     256KiB time=00:00:01.08 bitrate=1936.2kbits/s speed=0.0141x elapsed=0:01:17.10    \nframe=  133 fps=1.7 q=40.2 size=     512KiB time=00:00:01.09 bitrate=3842.4kbits/s speed=0.0141x elapsed=0:01:17.62    \nframe=  134 fps=1.7 q=41.2 size=     512KiB time=00:00:01.10 bitrate=3813.3kbits/s speed=0.0141x elapsed=0:01:18.13    \nframe=  136 fps=1.7 q=41.1 size=     512KiB time=00:00:01.11 bitrate=3756.4kbits/s speed=0.0142x elapsed=0:01:18.64    \nframe=  137 fps=1.7 q=35.0 size=     512KiB time=00:00:01.12 bitrate=3728.6kbits/s speed=0.0142x elapsed=0:01:19.17    \nframe=  139 fps=1.7 q=41.1 size=     512KiB time=00:00:01.14 bitrate=3674.2kbits/s speed=0.0143x elapsed=0:01:19.70    \nframe=  140 fps=1.7 q=41.0 size=     512KiB time=00:00:01.15 bitrate=3647.5kbits/s speed=0.0143x elapsed=0:01:20.20    \nframe=  141 fps=1.7 q=40.9 size=     512KiB time=00:00:01.15 bitrate=3621.3kbits/s speed=0.0143x elapsed=0:01:20.74    \nframe=  142 fps=1.7 q=34.3 size=     512KiB time=00:00:01.16 bitrate=3595.4kbits/s speed=0.0144x elapsed=0:01:21.26    \nframe=  143 fps=1.7 q=39.8 size=     512KiB time=00:00:01.17 bitrate=3569.9kbits/s speed=0.0144x elapsed=0:01:21.77    \nframe=  143 fps=1.7 q=39.8 size=     512KiB time=00:00:01.17 bitrate=3569.9kbits/s speed=0.0143x elapsed=0:01:22.30    \nframe=  144 fps=1.7 q=40.3 size=     512KiB time=00:00:01.18 bitrate=3544.8kbits/s speed=0.0143x elapsed=0:01:22.82    \nframe=  145 fps=1.7 q=40.2 size=     512KiB time=00:00:01.19 bitrate=3520.0kbits/s speed=0.0143x elapsed=0:01:23.35    \nframe=  146 fps=1.7 q=40.1 size=     512KiB time=00:00:01.20 bitrate=3495.5kbits/s speed=0.0143x elapsed=0:01:23.89    \nframe=  146 fps=1.7 q=40.1 size=     512KiB time=00:00:01.20 bitrate=3495.5kbits/s speed=0.0142x elapsed=0:01:24.40    \nframe=  147 fps=1.7 q=33.9 size=     512KiB time=00:00:01.20 bitrate=3471.4kbits/s speed=0.0142x elapsed=0:01:24.92    \nframe=  148 fps=1.7 q=39.2 size=     512KiB time=00:00:01.21 bitrate=3447.7kbits/s speed=0.0142x elapsed=0:01:25.43    \nframe=  149 fps=1.7 q=40.0 size=     512KiB time=00:00:01.22 bitrate=3424.2kbits/s speed=0.0142x elapsed=0:01:25.96    \nframe=  150 fps=1.7 q=39.9 size=     512KiB time=00:00:01.23 bitrate=3401.1kbits/s speed=0.0143x elapsed=0:01:26.47    \nframe=  150 fps=1.7 q=39.9 size=     512KiB time=00:00:01.23 bitrate=3401.1kbits/s speed=0.0142x elapsed=0:01:26.99    \nframe=  151 fps=1.7 q=39.4 size=     512KiB time=00:00:01.24 bitrate=3378.2kbits/s speed=0.0142x elapsed=0:01:27.53    \nframe=  152 fps=1.7 q=33.3 size=     512KiB time=00:00:01.25 bitrate=3355.7kbits/s speed=0.0142x elapsed=0:01:28.05    \nframe=  153 fps=1.7 q=39.0 size=     512KiB time=00:00:01.25 bitrate=3333.5kbits/s speed=0.0142x elapsed=0:01:28.57    \nframe=  154 fps=1.7 q=39.2 size=     512KiB time=00:00:01.26 bitrate=3311.6kbits/s speed=0.0142x elapsed=0:01:29.11    \nframe=  154 fps=1.7 q=39.2 size=     512KiB time=00:00:01.26 bitrate=3311.6kbits/s speed=0.0141x elapsed=0:01:29.62    \nframe=  155 fps=1.7 q=39.3 size=     512KiB time=00:00:01.27 bitrate=3289.9kbits/s speed=0.0141x elapsed=0:01:30.15    \nframe=  156 fps=1.7 q=39.2 size=     512KiB time=00:00:01.28 bitrate=3268.6kbits/s speed=0.0142x elapsed=0:01:30.67    \nframe=  158 fps=1.7 q=38.4 size=     512KiB time=00:00:01.30 bitrate=3226.7kbits/s speed=0.0143x elapsed=0:01:31.20    \nframe=  158 fps=1.7 q=38.4 size=     512KiB time=00:00:01.30 bitrate=3226.7kbits/s speed=0.0142x elapsed=0:01:31.72    \nframe=  159 fps=1.7 q=39.2 size=     512KiB time=00:00:01.30 bitrate=3206.1kbits/s speed=0.0142x elapsed=0:01:32.24    \nframe=  159 fps=1.7 q=39.2 size=     512KiB time=00:00:01.30 bitrate=3206.1kbits/s speed=0.0141x elapsed=0:01:32.75    \nframe=  160 fps=1.7 q=39.0 size=     512KiB time=00:00:01.31 bitrate=3185.8kbits/s speed=0.0141x elapsed=0:01:33.27    \nframe=  160 fps=1.7 q=39.0 size=     512KiB time=00:00:01.31 bitrate=3185.8kbits/s speed=0.014x elapsed=0:01:33.81    \nframe=  161 fps=1.7 q=38.4 size=     512KiB time=00:00:01.32 bitrate=3165.8kbits/s speed=0.014x elapsed=0:01:34.33    \nframe=  162 fps=1.7 q=32.2 size=     512KiB time=00:00:01.33 bitrate=3146.0kbits/s speed=0.0141x elapsed=0:01:34.84    \nframe=  163 fps=1.7 q=38.1 size=     512KiB time=00:00:01.34 bitrate=3126.5kbits/s speed=0.0141x elapsed=0:01:35.36    \nframe=  164 fps=1.7 q=38.4 size=     512KiB time=00:00:01.35 bitrate=3107.2kbits/s speed=0.0141x elapsed=0:01:35.89    \nframe=  164 fps=1.7 q=38.4 size=     512KiB time=00:00:01.35 bitrate=3107.2kbits/s speed=0.014x elapsed=0:01:36.41    \nframe=  166 fps=1.7 q=38.0 size=     512KiB time=00:00:01.36 bitrate=3069.3kbits/s speed=0.0141x elapsed=0:01:36.92    \nframe=  166 fps=1.7 q=38.0 size=     512KiB time=00:00:01.36 bitrate=3069.3kbits/s speed=0.014x elapsed=0:01:37.45    \nframe=  167 fps=1.7 q=32.0 size=     512KiB time=00:00:01.37 bitrate=3050.7kbits/s speed=0.014x elapsed=0:01:37.96    \nframe=  168 fps=1.7 q=37.2 size=     512KiB time=00:00:01.38 bitrate=3032.3kbits/s speed=0.014x elapsed=0:01:38.48    \nframe=  169 fps=1.7 q=38.0 size=     512KiB time=00:00:01.39 bitrate=3014.1kbits/s speed=0.0141x elapsed=0:01:39.00    \nframe=  170 fps=1.7 q=37.5 size=     512KiB time=00:00:01.40 bitrate=2996.2kbits/s speed=0.0141x elapsed=0:01:39.52    \nframe=  171 fps=1.7 q=37.4 size=     512KiB time=00:00:01.40 bitrate=2978.5kbits/s speed=0.0141x elapsed=0:01:40.03    \nframe=  172 fps=1.7 q=32.1 size=     512KiB time=00:00:01.41 bitrate=2960.9kbits/s speed=0.0141x elapsed=0:01:40.55    \nframe=  173 fps=1.7 q=37.2 size=     512KiB time=00:00:01.42 bitrate=2943.6kbits/s speed=0.0141x elapsed=0:01:41.07    \nframe=  174 fps=1.7 q=37.7 size=     512KiB time=00:00:01.43 bitrate=2926.5kbits/s speed=0.0141x elapsed=0:01:41.59    \nframe=  175 fps=1.7 q=37.6 size=     512KiB time=00:00:01.44 bitrate=2909.6kbits/s speed=0.0141x elapsed=0:01:42.10    \nframe=  175 fps=1.7 q=37.6 size=     512KiB time=00:00:01.44 bitrate=2909.6kbits/s speed=0.014x elapsed=0:01:42.64    \nframe=  176 fps=1.7 q=37.4 size=     512KiB time=00:00:01.45 bitrate=2892.9kbits/s speed=0.0141x elapsed=0:01:43.15    \nframe=  177 fps=1.7 q=31.7 size=     512KiB time=00:00:01.45 bitrate=2876.3kbits/s speed=0.0141x elapsed=0:01:43.66    \nframe=  179 fps=1.7 q=37.4 size=     512KiB time=00:00:01.47 bitrate=2843.8kbits/s speed=0.0142x elapsed=0:01:44.18    \nframe=  180 fps=1.7 q=37.1 size=     512KiB time=00:00:01.48 bitrate=2827.9kbits/s speed=0.0142x elapsed=0:01:44.70    \nframe=  180 fps=1.7 q=37.1 size=     512KiB time=00:00:01.48 bitrate=2827.9kbits/s speed=0.0141x elapsed=0:01:45.22    \nframe=  181 fps=1.7 q=37.3 size=     512KiB time=00:00:01.49 bitrate=2812.1kbits/s speed=0.0141x elapsed=0:01:45.74    \nframe=  182 fps=1.7 q=31.5 size=     512KiB time=00:00:01.50 bitrate=2796.4kbits/s speed=0.0141x elapsed=0:01:46.26    \nframe=  184 fps=1.7 q=37.4 size=     512KiB time=00:00:01.51 bitrate=2765.7kbits/s speed=0.0142x elapsed=0:01:46.77    \nframe=  184 fps=1.7 q=37.4 size=     512KiB time=00:00:01.51 bitrate=2765.7kbits/s speed=0.0141x elapsed=0:01:47.28    \nframe=  185 fps=1.7 q=37.2 size=     512KiB time=00:00:01.52 bitrate=2750.6kbits/s speed=0.0141x elapsed=0:01:47.80    \nframe=  185 fps=1.7 q=37.2 size=     512KiB time=00:00:01.52 bitrate=2750.6kbits/s speed=0.0141x elapsed=0:01:48.31    \nframe=  186 fps=1.7 q=37.2 size=     512KiB time=00:00:01.53 bitrate=2735.6kbits/s speed=0.0141x elapsed=0:01:48.84    \nframe=  187 fps=1.7 q=31.5 size=     512KiB time=00:00:01.54 bitrate=2720.9kbits/s speed=0.0141x elapsed=0:01:49.37    \nframe=  188 fps=1.7 q=36.6 size=     512KiB time=00:00:01.55 bitrate=2706.2kbits/s speed=0.0141x elapsed=0:01:49.88    \nframe=  189 fps=1.7 q=37.5 size=     512KiB time=00:00:01.55 bitrate=2691.8kbits/s speed=0.0141x elapsed=0:01:50.39    \nframe=  190 fps=1.7 q=36.8 size=     512KiB time=00:00:01.56 bitrate=2677.4kbits/s speed=0.0141x elapsed=0:01:50.93    \nframe=  190 fps=1.7 q=36.8 size=     512KiB time=00:00:01.56 bitrate=2677.4kbits/s speed=0.0141x elapsed=0:01:51.45    \nframe=  191 fps=1.7 q=36.8 size=     512KiB time=00:00:01.57 bitrate=2663.3kbits/s speed=0.0141x elapsed=0:01:51.98    \nframe=  191 fps=1.7 q=36.8 size=     512KiB time=00:00:01.57 bitrate=2663.3kbits/s speed=0.014x elapsed=0:01:52.50    \nframe=  192 fps=1.7 q=30.8 size=     512KiB time=00:00:01.58 bitrate=2649.3kbits/s speed=0.014x elapsed=0:01:53.03    \nframe=  194 fps=1.7 q=37.0 size=     512KiB time=00:00:01.60 bitrate=2621.7kbits/s speed=0.0141x elapsed=0:01:53.56    \nframe=  195 fps=1.7 q=36.8 size=     512KiB time=00:00:01.60 bitrate=2608.1kbits/s speed=0.0141x elapsed=0:01:54.07    \nframe=  195 fps=1.7 q=36.8 size=     512KiB time=00:00:01.60 bitrate=2608.1kbits/s speed=0.014x elapsed=0:01:54.60    \nframe=  196 fps=1.7 q=36.5 size=     512KiB time=00:00:01.61 bitrate=2594.6kbits/s speed=0.014x elapsed=0:01:55.12    \nframe=  197 fps=1.7 q=31.2 size=     512KiB time=00:00:01.62 bitrate=2581.3kbits/s speed=0.0141x elapsed=0:01:55.63    \nframe=  198 fps=1.7 q=36.4 size=     768KiB time=00:00:01.63 bitrate=3852.1kbits/s speed=0.0141x elapsed=0:01:56.14    \nframe=  199 fps=1.7 q=37.5 size=     768KiB time=00:00:01.64 bitrate=3832.6kbits/s speed=0.0141x elapsed=0:01:56.67    \nframe=  199 fps=1.7 q=37.5 size=     768KiB time=00:00:01.64 bitrate=3832.6kbits/s speed=0.014x elapsed=0:01:57.20    \nframe=  200 fps=1.7 q=37.1 size=     768KiB time=00:00:01.65 bitrate=3813.2kbits/s speed=0.014x elapsed=0:01:57.72    \nframe=  200 fps=1.7 q=37.1 size=     768KiB time=00:00:01.65 bitrate=3813.2kbits/s speed=0.014x elapsed=0:01:58.24    \nframe=  201 fps=1.7 q=36.9 size=     768KiB time=00:00:01.65 bitrate=3794.1kbits/s speed=0.014x elapsed=0:01:58.75    \nframe=  201 fps=1.7 q=36.9 size=     768KiB time=00:00:01.65 bitrate=3794.1kbits/s speed=0.0139x elapsed=0:01:59.28    \nframe=  202 fps=1.7 q=31.2 size=     768KiB time=00:00:01.66 bitrate=3775.1kbits/s speed=0.0139x elapsed=0:01:59.80    \nframe=  203 fps=1.7 q=36.5 size=     768KiB time=00:00:01.67 bitrate=3756.3kbits/s speed=0.0139x elapsed=0:02:00.31    \nframe=  203 fps=1.7 q=36.5 size=     768KiB time=00:00:01.67 bitrate=3756.3kbits/s speed=0.0139x elapsed=0:02:00.83    \nframe=  204 fps=1.7 q=37.5 size=     768KiB time=00:00:01.68 bitrate=3737.7kbits/s speed=0.0139x elapsed=0:02:01.34    \nframe=  205 fps=1.7 q=36.8 size=     768KiB time=00:00:01.69 bitrate=3719.3kbits/s speed=0.0139x elapsed=0:02:01.86    \nframe=  205 fps=1.7 q=36.8 size=     768KiB time=00:00:01.69 bitrate=3719.3kbits/s speed=0.0138x elapsed=0:02:02.38    \nframe=  207 fps=1.7 q=30.9 size=     768KiB time=00:00:01.70 bitrate=3683.0kbits/s speed=0.0139x elapsed=0:02:02.90    \nframe=  207 fps=1.7 q=30.9 size=     768KiB time=00:00:01.70 bitrate=3683.0kbits/s speed=0.0138x elapsed=0:02:03.41    \nframe=  208 fps=1.7 q=36.4 size=     768KiB time=00:00:01.71 bitrate=3665.1kbits/s speed=0.0139x elapsed=0:02:03.93    \nframe=  209 fps=1.7 q=37.1 size=     768KiB time=00:00:01.72 bitrate=3647.4kbits/s speed=0.0139x elapsed=0:02:04.45    \nframe=  209 fps=1.7 q=37.1 size=     768KiB time=00:00:01.72 bitrate=3647.4kbits/s speed=0.0138x elapsed=0:02:04.97    \nframe=  210 fps=1.7 q=37.1 size=     768KiB time=00:00:01.73 bitrate=3629.9kbits/s speed=0.0138x elapsed=0:02:05.51    \nframe=  211 fps=1.7 q=36.6 size=     768KiB time=00:00:01.74 bitrate=3612.5kbits/s speed=0.0138x elapsed=0:02:06.03    \nframe=  212 fps=1.7 q=30.7 size=     768KiB time=00:00:01.75 bitrate=3595.3kbits/s speed=0.0138x elapsed=0:02:06.55    \nframe=  213 fps=1.7 q=35.9 size=     768KiB time=00:00:01.75 bitrate=3578.3kbits/s speed=0.0138x elapsed=0:02:07.09    \nframe=  214 fps=1.7 q=36.7 size=     768KiB time=00:00:01.76 bitrate=3561.4kbits/s speed=0.0138x elapsed=0:02:07.60    \nframe=  215 fps=1.7 q=36.7 size=     768KiB time=00:00:01.77 bitrate=3544.7kbits/s speed=0.0139x elapsed=0:02:08.12    \nframe=  216 fps=1.7 q=36.5 size=     768KiB time=00:00:01.78 bitrate=3528.1kbits/s speed=0.0139x elapsed=0:02:08.70    \nframe=  217 fps=1.7 q=30.7 size=     768KiB time=00:00:01.79 bitrate=3511.7kbits/s speed=0.0139x elapsed=0:02:09.26    \nframe=  218 fps=1.7 q=36.0 size=     768KiB time=00:00:01.80 bitrate=3495.4kbits/s speed=0.0139x elapsed=0:02:09.78    \nframe=  219 fps=1.7 q=36.6 size=     768KiB time=00:00:01.80 bitrate=3479.3kbits/s speed=0.0139x elapsed=0:02:10.31    \nframe=  220 fps=1.7 q=36.9 size=     768KiB time=00:00:01.81 bitrate=3463.4kbits/s speed=0.0139x elapsed=0:02:10.84    \nframe=  220 fps=1.7 q=36.9 size=     768KiB time=00:00:01.81 bitrate=3463.4kbits/s speed=0.0138x elapsed=0:02:11.34    \nframe=  221 fps=1.7 q=36.6 size=     768KiB time=00:00:01.82 bitrate=3447.6kbits/s speed=0.0138x elapsed=0:02:11.87    \nframe=  222 fps=1.7 q=30.8 size=     768KiB time=00:00:01.83 bitrate=3431.9kbits/s speed=0.0138x elapsed=0:02:12.40    \nframe=  224 fps=1.7 q=36.6 size=     768KiB time=00:00:01.85 bitrate=3401.0kbits/s speed=0.0139x elapsed=0:02:12.92    \nframe=  224 fps=1.7 q=36.6 size=     768KiB time=00:00:01.85 bitrate=3401.0kbits/s speed=0.0139x elapsed=0:02:13.45    \nframe=  226 fps=1.7 q=35.9 size=     768KiB time=00:00:01.86 bitrate=3370.6kbits/s speed=0.0139x elapsed=0:02:13.98    \nframe=  227 fps=1.7 q=33.8 size=     768KiB time=00:00:01.87 bitrate=3355.6kbits/s speed=0.0139x elapsed=0:02:14.49    \nframe=  228 fps=1.7 q=38.0 size=     768KiB time=00:00:01.88 bitrate=3340.8kbits/s speed=0.0139x elapsed=0:02:15.02    \nframe=  230 fps=1.7 q=39.1 size=     768KiB time=00:00:01.90 bitrate=3311.5kbits/s speed=0.014x elapsed=0:02:15.53    \nframe=  230 fps=1.7 q=39.1 size=     768KiB time=00:00:01.90 bitrate=3311.5kbits/s speed=0.014x elapsed=0:02:16.06    \nframe=  231 fps=1.7 q=39.6 size=     768KiB time=00:00:01.90 bitrate=3297.0kbits/s speed=0.014x elapsed=0:02:16.59    \nframe=  232 fps=1.7 q=35.1 size=     768KiB time=00:00:01.91 bitrate=3282.7kbits/s speed=0.014x elapsed=0:02:17.11    \nframe=  234 fps=1.7 q=40.3 size=     768KiB time=00:00:01.93 bitrate=3254.4kbits/s speed=0.014x elapsed=0:02:17.64    \nframe=  235 fps=1.7 q=40.5 size=     768KiB time=00:00:01.94 bitrate=3240.4kbits/s speed=0.0141x elapsed=0:02:18.17    \nframe=  235 fps=1.7 q=40.5 size=     768KiB time=00:00:01.94 bitrate=3240.4kbits/s speed=0.014x elapsed=0:02:18.69    \nframe=  236 fps=1.7 q=40.7 size=     768KiB time=00:00:01.95 bitrate=3226.6kbits/s speed=0.014x elapsed=0:02:19.23    \nframe=  238 fps=1.7 q=39.5 size=     768KiB time=00:00:01.96 bitrate=3199.2kbits/s speed=0.0141x elapsed=0:02:19.78    \nframe=  240 fps=1.7 q=40.5 size=     768KiB time=00:00:01.98 bitrate=3172.3kbits/s speed=0.0141x elapsed=0:02:20.32    \nframe=  241 fps=1.7 q=40.5 size=     768KiB time=00:00:01.99 bitrate=3159.1kbits/s speed=0.0141x elapsed=0:02:20.83    \nframe=  242 fps=1.7 q=33.9 size=     768KiB time=00:00:02.00 bitrate=3145.9kbits/s speed=0.0141x elapsed=0:02:21.37    \nframe=  243 fps=1.7 q=39.3 size=     768KiB time=00:00:02.00 bitrate=3132.9kbits/s speed=0.0142x elapsed=0:02:21.89    \nframe=  244 fps=1.7 q=40.5 size=     768KiB time=00:00:02.01 bitrate=3119.9kbits/s speed=0.0142x elapsed=0:02:22.40    \nframe=  244 fps=1.7 q=40.5 size=     768KiB time=00:00:02.01 bitrate=3119.9kbits/s speed=0.0141x elapsed=0:02:22.92    \nframe=  245 fps=1.7 q=40.4 size=     768KiB time=00:00:02.02 bitrate=3107.1kbits/s speed=0.0141x elapsed=0:02:23.44    \nframe=  246 fps=1.7 q=40.5 size=     768KiB time=00:00:02.03 bitrate=3094.3kbits/s speed=0.0141x elapsed=0:02:23.95    \nframe=  246 fps=1.7 q=40.5 size=     768KiB time=00:00:02.03 bitrate=3094.3kbits/s speed=0.0141x elapsed=0:02:24.49    \nframe=  247 fps=1.7 q=29.0 size=     768KiB time=00:00:02.04 bitrate=3081.7kbits/s speed=0.0141x elapsed=0:02:25.01    \nframe=  248 fps=1.7 q=38.5 size=     768KiB time=00:00:02.05 bitrate=3069.2kbits/s speed=0.0141x elapsed=0:02:25.53    \nframe=  249 fps=1.7 q=38.3 size=     768KiB time=00:00:02.05 bitrate=3056.7kbits/s speed=0.0141x elapsed=0:02:26.05    \nframe=  251 fps=1.7 q=37.7 size=     768KiB time=00:00:02.07 bitrate=3032.2kbits/s speed=0.0142x elapsed=0:02:26.57    \nframe=  252 fps=1.7 q=30.7 size=     768KiB time=00:00:02.08 bitrate=3020.1kbits/s speed=0.0142x elapsed=0:02:27.10    \nframe=  252 fps=1.7 q=30.7 size=     768KiB time=00:00:02.08 bitrate=3020.1kbits/s speed=0.0141x elapsed=0:02:27.61    \nframe=  253 fps=1.7 q=35.2 size=     768KiB time=00:00:02.09 bitrate=3008.0kbits/s speed=0.0141x elapsed=0:02:28.15    \nframe=  254 fps=1.7 q=36.3 size=     768KiB time=00:00:02.10 bitrate=2996.1kbits/s speed=0.0141x elapsed=0:02:28.70    \nframe=  256 fps=1.7 q=37.7 size=     768KiB time=00:00:02.11 bitrate=2972.5kbits/s speed=0.0142x elapsed=0:02:29.27    \nframe=  257 fps=1.7 q=31.3 size=    1024KiB time=00:00:02.12 bitrate=3947.7kbits/s speed=0.0142x elapsed=0:02:29.80    \nframe=  257 fps=1.7 q=31.3 size=    1024KiB time=00:00:02.12 bitrate=3947.7kbits/s speed=0.0141x elapsed=0:02:30.33    \nframe=  258 fps=1.7 q=37.1 size=    1024KiB time=00:00:02.13 bitrate=3932.3kbits/s speed=0.0141x elapsed=0:02:30.85    \nframe=  260 fps=1.7 q=37.3 size=    1024KiB time=00:00:02.15 bitrate=3901.8kbits/s speed=0.0142x elapsed=0:02:31.37    \nframe=  262 fps=1.7 q=30.3 size=    1024KiB time=00:00:02.16 bitrate=3871.8kbits/s speed=0.0143x elapsed=0:02:31.89    \nframe=  262 fps=1.7 q=30.3 size=    1024KiB time=00:00:02.16 bitrate=3871.8kbits/s speed=0.0142x elapsed=0:02:32.41    \nframe=  265 fps=1.7 q=36.2 size=    1024KiB time=00:00:02.19 bitrate=3827.7kbits/s speed=0.0143x elapsed=0:02:32.94    \nframe=  266 fps=1.7 q=36.5 size=    1024KiB time=00:00:02.20 bitrate=3813.2kbits/s speed=0.0143x elapsed=0:02:33.47    \nframe=  267 fps=1.7 q=30.0 size=    1024KiB time=00:00:02.20 bitrate=3798.8kbits/s speed=0.0143x elapsed=0:02:33.99    \nframe=  268 fps=1.7 q=36.3 size=    1024KiB time=00:00:02.21 bitrate=3784.5kbits/s speed=0.0143x elapsed=0:02:34.51    \nframe=  269 fps=1.7 q=35.9 size=    1024KiB time=00:00:02.22 bitrate=3770.3kbits/s speed=0.0144x elapsed=0:02:35.02    \nframe=  271 fps=1.7 q=35.5 size=    1024KiB time=00:00:02.24 bitrate=3742.3kbits/s speed=0.0144x elapsed=0:02:35.56    \nframe=  272 fps=1.7 q=30.1 size=    1024KiB time=00:00:02.25 bitrate=3728.4kbits/s speed=0.0144x elapsed=0:02:36.06    \nframe=  273 fps=1.7 q=35.4 size=    1024KiB time=00:00:02.25 bitrate=3714.7kbits/s speed=0.0144x elapsed=0:02:36.60    \nframe=  273 fps=1.7 q=35.4 size=    1024KiB time=00:00:02.25 bitrate=3714.7kbits/s speed=0.0144x elapsed=0:02:37.11    \nframe=  274 fps=1.7 q=35.3 size=    1024KiB time=00:00:02.26 bitrate=3701.0kbits/s speed=0.0144x elapsed=0:02:37.63    \nframe=  275 fps=1.7 q=34.7 size=    1024KiB time=00:00:02.27 bitrate=3687.5kbits/s speed=0.0144x elapsed=0:02:38.15    \nframe=  276 fps=1.7 q=34.9 size=    1024KiB time=00:00:02.28 bitrate=3674.0kbits/s speed=0.0144x elapsed=0:02:38.66    \nframe=  278 fps=1.7 q=34.3 size=    1024KiB time=00:00:02.30 bitrate=3647.4kbits/s speed=0.0144x elapsed=0:02:39.18    \nframe=  279 fps=1.7 q=35.3 size=    1024KiB time=00:00:02.30 bitrate=3634.2kbits/s speed=0.0145x elapsed=0:02:39.71    \nframe=  280 fps=1.7 q=35.0 size=    1024KiB time=00:00:02.31 bitrate=3621.1kbits/s speed=0.0145x elapsed=0:02:40.24    \nframe=  281 fps=1.7 q=28.9 size=    1024KiB time=00:00:02.32 bitrate=3608.2kbits/s speed=0.0145x elapsed=0:02:40.75    \nframe=  283 fps=1.8 q=34.5 size=    1024KiB time=00:00:02.34 bitrate=3582.5kbits/s speed=0.0145x elapsed=0:02:41.30    \nframe=  284 fps=1.8 q=33.3 size=    1024KiB time=00:00:02.35 bitrate=3569.8kbits/s speed=0.0145x elapsed=0:02:41.83    \nframe=  286 fps=1.8 q=28.5 size=    1024KiB time=00:00:02.36 bitrate=3544.6kbits/s speed=0.0146x elapsed=0:02:42.35    \nframe=  287 fps=1.8 q=30.9 size=    1024KiB time=00:00:02.37 bitrate=3532.2kbits/s speed=0.0146x elapsed=0:02:42.86    \nframe=  288 fps=1.8 q=32.5 size=    1024KiB time=00:00:02.38 bitrate=3519.8kbits/s speed=0.0146x elapsed=0:02:43.40    \nframe=  289 fps=1.8 q=31.3 size=    1024KiB time=00:00:02.39 bitrate=3507.6kbits/s speed=0.0146x elapsed=0:02:43.93    \nframe=  290 fps=1.8 q=31.2 size=    1024KiB time=00:00:02.40 bitrate=3495.4kbits/s speed=0.0146x elapsed=0:02:44.44    \nframe=  291 fps=1.8 q=27.5 size=    1024KiB time=00:00:02.40 bitrate=3483.3kbits/s speed=0.0146x elapsed=0:02:44.96    \nframe=  292 fps=1.8 q=29.0 size=    1024KiB time=00:00:02.41 bitrate=3471.3kbits/s speed=0.0146x elapsed=0:02:45.49    \nframe=  292 fps=1.8 q=29.0 size=    1024KiB time=00:00:02.41 bitrate=3471.3kbits/s speed=0.0146x elapsed=0:02:46.02    \nframe=  293 fps=1.8 q=29.8 size=    1024KiB time=00:00:02.42 bitrate=3459.4kbits/s speed=0.0146x elapsed=0:02:46.54    \nframe=  293 fps=1.8 q=29.8 size=    1024KiB time=00:00:02.42 bitrate=3459.4kbits/s speed=0.0145x elapsed=0:02:47.08    \nframe=  295 fps=1.8 q=30.0 size=    1024KiB time=00:00:02.44 bitrate=3435.8kbits/s speed=0.0146x elapsed=0:02:47.60    \nframe=  295 fps=1.8 q=30.0 size=    1024KiB time=00:00:02.44 bitrate=3435.8kbits/s speed=0.0145x elapsed=0:02:48.11    \nframe=  297 fps=1.8 q=27.4 size=    1024KiB time=00:00:02.45 bitrate=3412.5kbits/s speed=0.0146x elapsed=0:02:48.66    \nframe=  298 fps=1.8 q=27.0 size=    1024KiB time=00:00:02.46 bitrate=3400.9kbits/s speed=0.0146x elapsed=0:02:49.18    \n[mp4 @ 000001b64cc69b80] Starting second pass: moving the moov atom to the beginning of the file\n[out#0/mp4 @ 000001b64cc69a80] video:1174KiB audio:0KiB subtitle:0KiB other streams:0KiB global headers:2KiB muxing overhead: 0.567227%\nframe=  300 fps=1.8 q=30.4 Lsize=    1181KiB time=00:00:02.48 bitrate=3894.7kbits/s speed=0.0147x elapsed=0:02:49.24    \nx265 [info]: frame I:      2, Avg QP:37.59  kb/s: 40030.08\nx265 [info]: frame P:     59, Avg QP:34.86  kb/s: 9151.39 \nx265 [info]: frame B:    239, Avg QP:39.85  kb/s: 2229.85 \nx265 [info]: Weighted P-Frames: Y:0.0% UV:0.0%\n\nencoded 300 frames in 169.13s (1.77 fps), 3843.09 kb/s, Avg QP:38.85\n",
  "seconds": 169.41790628433228,
  "probe_out": {}
}